<?xml version="1.0" encoding="UTF-8"?>
<svg width="26px" height="29px" viewBox="0 0 26 29" version="1.1" xmlns="http://www.w3.org/2000/svg" xmlns:xlink="http://www.w3.org/1999/xlink">
    <!-- Generator: Sketch 50.2 (55047) - http://www.bohemiancoding.com/sketch -->
    <title>logo</title>
    <desc>Created with Sketch.</desc>
    <defs></defs>
    <g id="Page-1" stroke="none" stroke-width="1" fill="none" fill-rule="evenodd">
        <g id="02_WhereAreYou" transform="translate(-149.000000, -25.000000)" fill="#FFAA30">
            <g id="header">
                <g id="nav" transform="translate(14.000000, 25.000000)">
                    <g id="logo" transform="translate(135.000000, 0.000000)">
                        <path d="M23.9154373,6.31208329 C24.5214161,6.66637399 25.0161307,7.53882431 25.0161307,8.24968167 L25.0161307,20.3395672 C25.0161307,21.049666 24.5214161,21.9221163 23.9154373,22.2771656 L13.6067051,28.3232464 C13.0022199,28.6786751 12.0116706,28.6786751 11.4049451,28.3232464 L1.09994658,22.2771656 C0.495087973,21.9221163 0,21.049666 0,20.3395672 L0,8.24968167 C0,7.53882431 0.495087973,6.66637399 1.09994658,6.31208329 L11.4049451,0.267140497 C12.0116706,-0.0890468323 13.0022199,-0.0890468323 13.6067051,0.267140497 L23.9154373,6.31208329 Z M20.4655031,14.8017836 L20.4655031,13.7878446 C20.4655031,13.4900735 20.2276667,13.2492014 19.9341982,13.2492014 L16.6268911,13.2492014 C14.919099,13.2492014 13.5365117,11.843039 13.5365117,10.1106561 L13.5365117,6.74982576 C13.5365117,6.45243399 13.2997954,6.21080318 13.0059536,6.21080318 L12.009057,6.21080318 C11.7144684,6.21080318 11.4784989,6.45243399 11.4784989,6.74982576 L11.4784989,10.1106561 C11.4784989,11.843039 10.0959116,13.2492014 8.38849282,13.2492014 L5.08118569,13.2492014 C4.78883736,13.2492014 4.55025424,13.4900735 4.55025424,13.7878446 L4.55025424,14.8017836 C4.55025424,15.0995547 4.78883736,15.3400475 5.08118569,15.3400475 L8.38849282,15.3400475 C10.0959116,15.3400475 11.4784989,16.7450719 11.4784989,18.4782134 L11.4784989,21.8398025 C11.4784989,22.1364356 11.7144684,22.3788251 12.009057,22.3788251 L13.0059536,22.3788251 C13.2997954,22.3788251 13.5365117,22.1364356 13.5365117,21.8398025 L13.5365117,18.4782134 C13.5365117,16.7450719 14.919099,15.3400475 16.6268911,15.3400475 L19.9341982,15.3400475 C20.2276667,15.3400475 20.4655031,15.0995547 20.4655031,14.8017836 Z" id="Combined-Shape"></path>
                    </g>
                </g>
            </g>
        </g>
    </g>
</svg>